<svg width="1200" height="760" viewBox="0 0 1200 760" fill="none" xmlns="http://www.w3.org/2000/svg">
  <rect width="1200" height="760" rx="36" fill="#FFF9F3"/>
  <rect x="24" y="24" width="1152" height="712" rx="28" fill="white" stroke="#F2E6D6" stroke-width="2"/>
  <rect x="64" y="64" width="220" height="40" rx="12" fill="#FFF4E7"/>
  <text x="92" y="90" fill="#9A3412" font-family="Arial" font-size="18" font-weight="700">Заявки и CPL</text>

  <rect x="72" y="144" width="1056" height="498" rx="24" fill="#FFFCF8" stroke="#F3E7D7" stroke-width="2"/>
  <path d="M72 228H1128" stroke="#F0E5D8" stroke-width="2"/>
  <path d="M72 312H1128" stroke="#F0E5D8" stroke-width="2"/>
  <path d="M72 396H1128" stroke="#F0E5D8" stroke-width="2"/>
  <path d="M72 480H1128" stroke="#F0E5D8" stroke-width="2"/>
  <path d="M72 564H1128" stroke="#F0E5D8" stroke-width="2"/>
  <path d="M268 144V642" stroke="#F0E5D8" stroke-width="2"/>
  <path d="M464 144V642" stroke="#F0E5D8" stroke-width="2"/>
  <path d="M660 144V642" stroke="#F0E5D8" stroke-width="2"/>
  <path d="M856 144V642" stroke="#F0E5D8" stroke-width="2"/>

  <text x="132" y="196" fill="#0F172A" font-family="Arial" font-size="26" font-weight="700">Месяц</text>
  <text x="324" y="196" fill="#0F172A" font-family="Arial" font-size="26" font-weight="700">Бюджет</text>
  <text x="512" y="196" fill="#0F172A" font-family="Arial" font-size="26" font-weight="700">Трафик</text>
  <text x="712" y="196" fill="#0F172A" font-family="Arial" font-size="26" font-weight="700">Заявок</text>
  <text x="930" y="196" fill="#0F172A" font-family="Arial" font-size="26" font-weight="700">CPL</text>

  <text x="146" y="280" fill="#7C2D12" font-family="Arial" font-size="30" font-weight="700">декабрь</text>
  <text x="146" y="364" fill="#7C2D12" font-family="Arial" font-size="30" font-weight="700">январь</text>
  <text x="146" y="448" fill="#7C2D12" font-family="Arial" font-size="30" font-weight="700">февраль</text>

  <text x="340" y="280" fill="#0F172A" font-family="Arial" font-size="30">25 000 ₽</text>
  <text x="340" y="364" fill="#0F172A" font-family="Arial" font-size="30">25 000 ₽</text>
  <text x="340" y="448" fill="#0F172A" font-family="Arial" font-size="30">25 000 ₽</text>

  <text x="540" y="280" fill="#0F172A" font-family="Arial" font-size="30">318</text>
  <text x="540" y="364" fill="#0F172A" font-family="Arial" font-size="30">521</text>
  <text x="540" y="448" fill="#0F172A" font-family="Arial" font-size="30">567</text>

  <text x="734" y="280" fill="#0F172A" font-family="Arial" font-size="30">44</text>
  <text x="734" y="364" fill="#0F172A" font-family="Arial" font-size="30">66</text>
  <text x="734" y="448" fill="#0F172A" font-family="Arial" font-size="30">76</text>

  <text x="940" y="280" fill="#0F172A" font-family="Arial" font-size="30">568 ₽</text>
  <text x="940" y="364" fill="#10B981" font-family="Arial" font-size="30" font-weight="700">379 ₽</text>
  <text x="940" y="448" fill="#10B981" font-family="Arial" font-size="30" font-weight="700">329 ₽</text>

  <rect x="76" y="524" width="1048" height="92" rx="20" fill="#F0FDF4"/>
  <text x="112" y="580" fill="#166534" font-family="Arial" font-size="28" font-weight="700">При том же бюджете трафик и количество заявок росли, а CPL снижался месяц к месяцу.</text>
</svg>
