<svg width="1200" height="760" viewBox="0 0 1200 760" fill="none" xmlns="http://www.w3.org/2000/svg">
  <rect width="1200" height="760" rx="36" fill="#F8FBFF"/>
  <rect x="24" y="24" width="1152" height="712" rx="28" fill="white" stroke="#E5EDF7" stroke-width="2"/>
  <rect x="64" y="64" width="214" height="40" rx="12" fill="#EEF7FF"/>
  <text x="92" y="90" fill="#0F4C81" font-family="Arial" font-size="18" font-weight="700">Динамика позиций</text>

  <g opacity="0.9">
    <rect x="76" y="154" width="150" height="64" rx="16" fill="#E2FBE8"/>
    <rect x="234" y="154" width="150" height="64" rx="16" fill="#D6F4FF"/>
    <rect x="392" y="154" width="150" height="64" rx="16" fill="#E2FBE8"/>
    <rect x="550" y="154" width="150" height="64" rx="16" fill="#FFF0D9"/>
    <rect x="708" y="154" width="150" height="64" rx="16" fill="#E2FBE8"/>
    <rect x="866" y="154" width="150" height="64" rx="16" fill="#E2FBE8"/>
  </g>
  <text x="118" y="193" fill="#166534" font-family="Arial" font-size="28" font-weight="700">1–10</text>
  <text x="260" y="193" fill="#0F4C81" font-family="Arial" font-size="28" font-weight="700">11–30</text>
  <text x="414" y="193" fill="#166534" font-family="Arial" font-size="28" font-weight="700">1–10</text>
  <text x="572" y="193" fill="#9A3412" font-family="Arial" font-size="28" font-weight="700">31–50</text>
  <text x="730" y="193" fill="#166534" font-family="Arial" font-size="28" font-weight="700">1–10</text>
  <text x="888" y="193" fill="#166534" font-family="Arial" font-size="28" font-weight="700">1–10</text>

  <g>
    <rect x="76" y="260" width="1040" height="372" rx="24" fill="#FBFDFF" stroke="#E6EEF7" stroke-width="2"/>
    <g opacity="0.88">
      <rect x="96" y="280" width="110" height="62" rx="14" fill="#D9FBE0"/><text x="137" y="320" fill="#166534" font-family="Arial" font-size="26" font-weight="700">1</text>
      <rect x="216" y="280" width="110" height="62" rx="14" fill="#EAF7FF"/><text x="253" y="320" fill="#0369A1" font-family="Arial" font-size="26" font-weight="700">5</text>
      <rect x="336" y="280" width="110" height="62" rx="14" fill="#D9FBE0"/><text x="373" y="320" fill="#166534" font-family="Arial" font-size="26" font-weight="700">4</text>
      <rect x="456" y="280" width="110" height="62" rx="14" fill="#EAF7FF"/><text x="493" y="320" fill="#0369A1" font-family="Arial" font-size="26" font-weight="700">12</text>
      <rect x="576" y="280" width="110" height="62" rx="14" fill="#D9FBE0"/><text x="613" y="320" fill="#166534" font-family="Arial" font-size="26" font-weight="700">1</text>
      <rect x="696" y="280" width="110" height="62" rx="14" fill="#EAF7FF"/><text x="733" y="320" fill="#0369A1" font-family="Arial" font-size="26" font-weight="700">3</text>
      <rect x="816" y="280" width="110" height="62" rx="14" fill="#D9FBE0"/><text x="853" y="320" fill="#166534" font-family="Arial" font-size="26" font-weight="700">1</text>
      <rect x="936" y="280" width="110" height="62" rx="14" fill="#FDE7E7"/><text x="973" y="320" fill="#B91C1C" font-family="Arial" font-size="26" font-weight="700">15</text>

      <rect x="96" y="352" width="110" height="62" rx="14" fill="#D9FBE0"/><text x="137" y="392" fill="#166534" font-family="Arial" font-size="26" font-weight="700">1</text>
      <rect x="216" y="352" width="110" height="62" rx="14" fill="#D9FBE0"/><text x="253" y="392" fill="#166534" font-family="Arial" font-size="26" font-weight="700">1</text>
      <rect x="336" y="352" width="110" height="62" rx="14" fill="#EAF7FF"/><text x="373" y="392" fill="#0369A1" font-family="Arial" font-size="26" font-weight="700">2</text>
      <rect x="456" y="352" width="110" height="62" rx="14" fill="#EAF7FF"/><text x="493" y="392" fill="#0369A1" font-family="Arial" font-size="26" font-weight="700">8</text>
      <rect x="576" y="352" width="110" height="62" rx="14" fill="#D9FBE0"/><text x="613" y="392" fill="#166534" font-family="Arial" font-size="26" font-weight="700">1</text>
      <rect x="696" y="352" width="110" height="62" rx="14" fill="#EAF7FF"/><text x="733" y="392" fill="#0369A1" font-family="Arial" font-size="26" font-weight="700">2</text>
      <rect x="816" y="352" width="110" height="62" rx="14" fill="#D9FBE0"/><text x="853" y="392" fill="#166534" font-family="Arial" font-size="26" font-weight="700">1</text>
      <rect x="936" y="352" width="110" height="62" rx="14" fill="#EAF7FF"/><text x="973" y="392" fill="#0369A1" font-family="Arial" font-size="26" font-weight="700">6</text>

      <rect x="96" y="424" width="110" height="62" rx="14" fill="#EAF7FF"/><text x="133" y="464" fill="#0369A1" font-family="Arial" font-size="26" font-weight="700">7</text>
      <rect x="216" y="424" width="110" height="62" rx="14" fill="#D9FBE0"/><text x="253" y="464" fill="#166534" font-family="Arial" font-size="26" font-weight="700">3</text>
      <rect x="336" y="424" width="110" height="62" rx="14" fill="#EAF7FF"/><text x="373" y="464" fill="#0369A1" font-family="Arial" font-size="26" font-weight="700">10</text>
      <rect x="456" y="424" width="110" height="62" rx="14" fill="#EAF7FF"/><text x="493" y="464" fill="#0369A1" font-family="Arial" font-size="26" font-weight="700">8</text>
      <rect x="576" y="424" width="110" height="62" rx="14" fill="#D9FBE0"/><text x="613" y="464" fill="#166534" font-family="Arial" font-size="26" font-weight="700">2</text>
      <rect x="696" y="424" width="110" height="62" rx="14" fill="#D9FBE0"/><text x="733" y="464" fill="#166534" font-family="Arial" font-size="26" font-weight="700">1</text>
      <rect x="816" y="424" width="110" height="62" rx="14" fill="#EAF7FF"/><text x="853" y="464" fill="#0369A1" font-family="Arial" font-size="26" font-weight="700">2</text>
      <rect x="936" y="424" width="110" height="62" rx="14" fill="#EAF7FF"/><text x="973" y="464" fill="#0369A1" font-family="Arial" font-size="26" font-weight="700">13</text>

      <rect x="96" y="496" width="110" height="62" rx="14" fill="#D9FBE0"/><text x="137" y="536" fill="#166534" font-family="Arial" font-size="26" font-weight="700">1</text>
      <rect x="216" y="496" width="110" height="62" rx="14" fill="#D9FBE0"/><text x="253" y="536" fill="#166534" font-family="Arial" font-size="26" font-weight="700">1</text>
      <rect x="336" y="496" width="110" height="62" rx="14" fill="#D9FBE0"/><text x="373" y="536" fill="#166534" font-family="Arial" font-size="26" font-weight="700">2</text>
      <rect x="456" y="496" width="110" height="62" rx="14" fill="#EAF7FF"/><text x="493" y="536" fill="#0369A1" font-family="Arial" font-size="26" font-weight="700">2</text>
      <rect x="576" y="496" width="110" height="62" rx="14" fill="#D9FBE0"/><text x="613" y="536" fill="#166534" font-family="Arial" font-size="26" font-weight="700">1</text>
      <rect x="696" y="496" width="110" height="62" rx="14" fill="#FDE7E7"/><text x="733" y="536" fill="#B91C1C" font-family="Arial" font-size="26" font-weight="700">27</text>
      <rect x="816" y="496" width="110" height="62" rx="14" fill="#EAF7FF"/><text x="853" y="536" fill="#0369A1" font-family="Arial" font-size="26" font-weight="700">2</text>
      <rect x="936" y="496" width="110" height="62" rx="14" fill="#D9FBE0"/><text x="973" y="536" fill="#166534" font-family="Arial" font-size="26" font-weight="700">6</text>
    </g>
  </g>

  <rect x="76" y="654" width="1040" height="60" rx="18" fill="#F0FDF4"/>
  <text x="112" y="694" fill="#166534" font-family="Arial" font-size="24" font-weight="700">Матрица показывает закрепление значимой части запросов в ТОП-10 и появление точек входа в ТОП-1.</text>
</svg>
