<svg width="24" height="24" viewBox="0 0 240 240" fill="none" xmlns="http://www.w3.org/2000/svg">
  <circle cx="120" cy="120" r="120" fill="#37AEE2" />
  <path
    d="M54.2 118.5C89.2 103.2 112.6 93 124.4 88C158.2 73.9 165.2 71.5 169.7 71.4C170.7 71.4 173 71.6 174.4 72.8C175.5 73.8 175.8 75.2 175.9 76.2C176 77.2 176.2 79.5 176.1 81.3C174.7 101.8 165.8 151.5 161.3 174.5C159.4 184.2 155.7 187.4 152.1 187.7C144.4 188.4 138.5 182.6 131 177.7C119.2 170 112.5 165.2 101.1 157.7C87.9 149 96.5 144.2 104 136.4C106 134.4 141 102.5 141.7 99.7C141.8 99.4 141.8 98.1 141 97.3C140.2 96.6 139 96.8 138.2 97C137.1 97.3 119.1 109.2 84.1 132.8C79 136.3 74.4 138 70.5 137.9C66.1 137.8 57.7 135.4 51.4 133.3C43.7 130.8 37.5 129.4 38 125.1C38.3 122.9 43.7 120.7 54.2 118.5Z"
    fill="white"
  />
</svg>
