<svg width="128" height="128" viewBox="0 0 128 128" fill="none" xmlns="http://www.w3.org/2000/svg">
  <circle cx="64" cy="64" r="64" fill="url(#paint0_linear)"/>
  <path d="M95.376 35.268C97.8093 34.2314 100.105 36.5231 99.0728 38.9584L83.0872 76.6805C82.0302 79.1748 78.7587 79.6348 77.068 77.5368L64.5153 61.9618L49.5791 71.5257C47.0836 73.1234 43.8482 70.934 44.4454 68.0369L49.1672 45.1239C49.417 43.9115 50.1208 42.8401 51.1297 42.1268L95.376 35.268Z" fill="white"/>
  <path d="M53.248 51.746L81.9228 43.9394C83.8511 43.4145 85.2123 45.8068 83.7527 47.1723L61.8201 67.6896C60.9675 68.487 59.6097 68.557 58.6804 67.8528L52.6718 63.2975C51.0154 62.0414 51.3195 52.271 53.248 51.746Z" fill="#EAF7FF"/>
  <defs>
    <linearGradient id="paint0_linear" x1="22" y1="16" x2="98" y2="112" gradientUnits="userSpaceOnUse">
      <stop stop-color="#44B6F4"/>
      <stop offset="1" stop-color="#1993E8"/>
    </linearGradient>
  </defs>
</svg>
