<svg width="24" height="24" viewBox="0 0 24 24" fill="none" xmlns="http://www.w3.org/2000/svg">
  <circle cx="12" cy="12" r="12" fill="#27A7E7"/>
  <path d="M17.942 6.934C18.311 6.778 18.659 7.125 18.503 7.495L15.83 13.829C15.672 14.204 15.181 14.273 14.927 13.959L12.909 11.465L9.974 13.357C9.597 13.6 9.108 13.271 9.197 12.83L10.124 8.275C10.163 8.081 10.276 7.906 10.437 7.79L17.942 6.934Z" fill="white"/>
  <path d="M10.57 9.129L15.48 7.761C15.866 7.653 16.138 8.133 15.848 8.404L12.095 11.911C11.934 12.062 11.686 12.076 11.508 11.944L10.205 10.98C9.871 10.733 10.184 9.237 10.57 9.129Z" fill="#DFF3FF"/>
</svg>
