<svg width="1600" height="900" viewBox="0 0 1600 900" fill="none" xmlns="http://www.w3.org/2000/svg">
  <rect width="1600" height="900" rx="48" fill="url(#bg)"/>
  <circle cx="1260" cy="180" r="150" fill="#7DD3FC" fill-opacity="0.18"/>
  <circle cx="280" cy="730" r="210" fill="#FDBA74" fill-opacity="0.18"/>
  <rect x="120" y="132" width="400" height="74" rx="37" fill="#FFF8F1" fill-opacity="0.9"/>
  <text x="170" y="179" fill="#C2410C" font-family="Arial, sans-serif" font-size="30" font-weight="700" letter-spacing="7">AI SEARCH</text>
  <text x="120" y="290" fill="#E2E8F0" font-family="Arial, sans-serif" font-size="72" font-weight="700">GEO и ИИ-выдача</text>
  <text x="120" y="368" fill="#CBD5E1" font-family="Arial, sans-serif" font-size="34">Как получать трафик</text>
  <text x="120" y="414" fill="#CBD5E1" font-family="Arial, sans-serif" font-size="34">из ответов нейросетей</text>
  <rect x="120" y="520" width="450" height="168" rx="30" fill="#0F172A" fill-opacity="0.76" stroke="#67E8F9" stroke-opacity="0.35"/>
  <text x="158" y="585" fill="#F8FAFC" font-family="Arial, sans-serif" font-size="32" font-weight="700">Answer-first страницы</text>
  <text x="158" y="640" fill="#CBD5E1" font-family="Arial, sans-serif" font-size="28">Структура, сущности, доверие,</text>
  <text x="158" y="680" fill="#CBD5E1" font-family="Arial, sans-serif" font-size="28">контент глубже AI-блока.</text>
  <rect x="1060" y="438" width="310" height="196" rx="38" fill="#FFFFFF" fill-opacity="0.9"/>
  <rect x="1102" y="486" width="220" height="16" rx="8" fill="#7DD3FC"/>
  <rect x="1102" y="528" width="178" height="16" rx="8" fill="#FDBA74"/>
  <rect x="1102" y="570" width="236" height="16" rx="8" fill="#0F172A" fill-opacity="0.15"/>
  <circle cx="1174" cy="350" r="18" fill="#FFFFFF" fill-opacity="0.8"/>
  <circle cx="1230" cy="350" r="18" fill="#FFFFFF" fill-opacity="0.5"/>
  <circle cx="1286" cy="350" r="18" fill="#FFFFFF" fill-opacity="0.3"/>
  <defs>
    <linearGradient id="bg" x1="84" y1="54" x2="1514" y2="852" gradientUnits="userSpaceOnUse">
      <stop stop-color="#0F172A"/>
      <stop offset="0.5" stop-color="#13253C"/>
      <stop offset="1" stop-color="#1E293B"/>
    </linearGradient>
  </defs>
</svg>
