<svg width="1600" height="900" viewBox="0 0 1600 900" fill="none" xmlns="http://www.w3.org/2000/svg">
  <defs>
    <linearGradient id="bg" x1="120" y1="90" x2="1490" y2="820" gradientUnits="userSpaceOnUse">
      <stop stop-color="#0B1426"/>
      <stop offset="0.55" stop-color="#122640"/>
      <stop offset="1" stop-color="#1A3250"/>
    </linearGradient>
    <linearGradient id="node" x1="0" y1="0" x2="1" y2="1">
      <stop stop-color="#8AE5FF"/>
      <stop offset="1" stop-color="#FFB57A"/>
    </linearGradient>
  </defs>

  <rect width="1600" height="900" rx="48" fill="url(#bg)"/>
  <circle cx="1288" cy="160" r="168" fill="#67E8F9" fill-opacity="0.12"/>
  <circle cx="244" cy="742" r="220" fill="#FDBA74" fill-opacity="0.14"/>

  <rect x="180" y="176" width="570" height="300" rx="44" fill="#0F1C32" fill-opacity="0.78" stroke="#93C5FD" stroke-opacity="0.35" stroke-width="4"/>
  <path d="M330 480H454L392 558Z" fill="#0F1C32" fill-opacity="0.78" stroke="#93C5FD" stroke-opacity="0.35" stroke-width="4"/>
  <rect x="244" y="248" width="438" height="32" rx="16" fill="#67E8F9" fill-opacity="0.58"/>
  <rect x="244" y="304" width="356" height="26" rx="13" fill="#FDBA74" fill-opacity="0.55"/>
  <rect x="244" y="354" width="298" height="26" rx="13" fill="#BFDBFE" fill-opacity="0.5"/>

  <rect x="930" y="214" width="432" height="460" rx="46" fill="#F8FAFC" fill-opacity="0.93"/>
  <circle cx="1074" cy="336" r="62" fill="#0F172A" fill-opacity="0.06"/>
  <circle cx="1214" cy="336" r="62" fill="#0F172A" fill-opacity="0.06"/>
  <circle cx="1074" cy="500" r="62" fill="#0F172A" fill-opacity="0.06"/>
  <circle cx="1214" cy="500" r="62" fill="#0F172A" fill-opacity="0.06"/>
  <path d="M1074 336L1214 336M1074 336L1074 500M1214 336L1214 500M1074 500L1214 500" stroke="url(#node)" stroke-width="14" stroke-linecap="round"/>
  <circle cx="1074" cy="336" r="20" fill="#0EA5E9"/>
  <circle cx="1214" cy="336" r="20" fill="#0EA5E9"/>
  <circle cx="1074" cy="500" r="20" fill="#FB923C"/>
  <circle cx="1214" cy="500" r="20" fill="#FB923C"/>

  <path d="M744 340C810 340 846 356 902 400" stroke="#93C5FD" stroke-width="10" stroke-linecap="round" stroke-dasharray="10 18"/>
  <path d="M870 384L914 402L886 440" stroke="#93C5FD" stroke-width="10" stroke-linecap="round" stroke-linejoin="round"/>
</svg>
