<svg width="1600" height="900" viewBox="0 0 1600 900" fill="none" xmlns="http://www.w3.org/2000/svg">
  <rect width="1600" height="900" rx="48" fill="#EEF6FF"/>
  <rect width="1600" height="900" rx="48" fill="url(#paint0_radial_1_2)"/>
  <rect x="88" y="96" width="1424" height="708" rx="36" fill="url(#paint1_linear_1_2)" stroke="#C9DDF4"/>
  <path d="M180 204H760" stroke="#94BEE4" stroke-width="20" stroke-linecap="round"/>
  <path d="M180 270H1018" stroke="#C4DCF1" stroke-width="14" stroke-linecap="round"/>
  <path d="M180 326H892" stroke="#D5E7F8" stroke-width="14" stroke-linecap="round"/>
  <rect x="180" y="420" width="494" height="244" rx="28" fill="#FFFFFF" stroke="#D4E3F3"/>
  <rect x="706" y="420" width="714" height="110" rx="28" fill="#F8FBFF" stroke="#D4E3F3"/>
  <rect x="706" y="554" width="714" height="110" rx="28" fill="#F8FBFF" stroke="#D4E3F3"/>
  <circle cx="1344" cy="204" r="62" fill="#D8EEFF"/>
  <circle cx="1376" cy="172" r="22" fill="#FFB37D"/>
  <circle cx="290" cy="712" r="68" fill="#D7F5FF"/>
  <circle cx="332" cy="674" r="18" fill="#1D8FE1"/>
  <path d="M194 462H514" stroke="#16304C" stroke-width="18" stroke-linecap="round"/>
  <path d="M194 516H420" stroke="#86A9C9" stroke-width="12" stroke-linecap="round"/>
  <path d="M194 556H472" stroke="#D1E1F1" stroke-width="12" stroke-linecap="round"/>
  <path d="M194 596H384" stroke="#D1E1F1" stroke-width="12" stroke-linecap="round"/>
  <defs>
    <radialGradient id="paint0_radial_1_2" cx="0" cy="0" r="1" gradientUnits="userSpaceOnUse" gradientTransform="translate(1320 174) rotate(147.183) scale(789.695 821.098)">
      <stop stop-color="#D3EEFF"/>
      <stop offset="1" stop-color="#EEF6FF" stop-opacity="0"/>
    </radialGradient>
    <linearGradient id="paint1_linear_1_2" x1="88" y1="96" x2="1478.7" y2="808.338" gradientUnits="userSpaceOnUse">
      <stop stop-color="#FFFFFF"/>
      <stop offset="1" stop-color="#F4FAFF"/>
    </linearGradient>
  </defs>
</svg>
