<svg width="1600" height="900" viewBox="0 0 1600 900" fill="none" xmlns="http://www.w3.org/2000/svg">
  <defs>
    <linearGradient id="bg" x1="120" y1="80" x2="1492" y2="836" gradientUnits="userSpaceOnUse">
      <stop stop-color="#122036"/>
      <stop offset="0.52" stop-color="#1B3E6D"/>
      <stop offset="1" stop-color="#10607E"/>
    </linearGradient>
  </defs>

  <rect width="1600" height="900" rx="48" fill="url(#bg)"/>
  <circle cx="1330" cy="174" r="154" fill="#67E8F9" fill-opacity="0.18"/>
  <circle cx="250" cy="742" r="206" fill="#FDBA74" fill-opacity="0.14"/>

  <rect x="166" y="180" width="648" height="540" rx="54" fill="#0F172A" fill-opacity="0.66" stroke="#67E8F9" stroke-opacity="0.34" stroke-width="4"/>
  <path d="M238 590C300 430 392 400 502 470C610 538 678 500 742 324" stroke="#22D3EE" stroke-width="16" stroke-linecap="round"/>
  <circle cx="264" cy="562" r="26" fill="#0EA5E9"/>
  <circle cx="506" cy="470" r="26" fill="#FB923C"/>
  <circle cx="742" cy="324" r="26" fill="#22C55E"/>
  <path d="M252 562L262 574L280 552" stroke="#0F172A" stroke-width="8" stroke-linecap="round" stroke-linejoin="round"/>
  <path d="M730 324L740 336L758 314" stroke="#0F172A" stroke-width="8" stroke-linecap="round" stroke-linejoin="round"/>
  <rect x="238" y="250" width="264" height="24" rx="12" fill="#DBEAFE" fill-opacity="0.5"/>
  <rect x="238" y="292" width="190" height="20" rx="10" fill="#DBEAFE" fill-opacity="0.36"/>

  <rect x="886" y="180" width="548" height="540" rx="56" fill="#F8FAFC" fill-opacity="0.95"/>
  <rect x="964" y="258" width="394" height="112" rx="28" fill="#E2E8F0"/>
  <rect x="964" y="404" width="394" height="112" rx="28" fill="#DBEAFE"/>
  <rect x="964" y="550" width="394" height="112" rx="28" fill="#FFE4E6"/>
  <circle cx="1026" cy="314" r="22" fill="#22C55E"/>
  <circle cx="1026" cy="460" r="22" fill="#22C55E"/>
  <circle cx="1026" cy="606" r="22" fill="#22C55E"/>
  <path d="M1016 314L1024 324L1040 306" stroke="#052E16" stroke-width="7" stroke-linecap="round" stroke-linejoin="round"/>
  <path d="M1016 460L1024 470L1040 452" stroke="#052E16" stroke-width="7" stroke-linecap="round" stroke-linejoin="round"/>
  <path d="M1016 606L1024 616L1040 598" stroke="#052E16" stroke-width="7" stroke-linecap="round" stroke-linejoin="round"/>
</svg>
