<svg width="1600" height="900" viewBox="0 0 1600 900" fill="none" xmlns="http://www.w3.org/2000/svg">
  <defs>
    <linearGradient id="bg" x1="94" y1="84" x2="1510" y2="840" gradientUnits="userSpaceOnUse">
      <stop stop-color="#23121D"/>
      <stop offset="0.52" stop-color="#3A1F3A"/>
      <stop offset="1" stop-color="#243C63"/>
    </linearGradient>
  </defs>

  <rect width="1600" height="900" rx="48" fill="url(#bg)"/>
  <circle cx="1328" cy="176" r="154" fill="#F472B6" fill-opacity="0.18"/>
  <circle cx="248" cy="742" r="210" fill="#67E8F9" fill-opacity="0.14"/>

  <rect x="196" y="166" width="760" height="568" rx="56" fill="#0F172A" fill-opacity="0.7" stroke="#FDA4AF" stroke-opacity="0.36" stroke-width="4"/>
  <rect x="288" y="248" width="576" height="380" rx="38" fill="#F8FAFC" fill-opacity="0.94"/>
  <rect x="352" y="328" width="344" height="28" rx="14" fill="#94A3B8" fill-opacity="0.34"/>
  <rect x="352" y="378" width="280" height="22" rx="11" fill="#94A3B8" fill-opacity="0.24"/>
  <path d="M352 478L816 478" stroke="#F43F5E" stroke-width="16" stroke-linecap="round"/>
  <path d="M352 564L816 564" stroke="#F43F5E" stroke-width="16" stroke-linecap="round"/>
  <path d="M352 478L816 564" stroke="#F43F5E" stroke-width="14" stroke-linecap="round"/>

  <rect x="1056" y="264" width="312" height="330" rx="48" fill="#F8FAFC" fill-opacity="0.95"/>
  <rect x="1136" y="388" width="152" height="128" rx="30" fill="#FECACA"/>
  <path d="M1166 388V350C1166 306 1200 272 1244 272C1288 272 1322 306 1322 350V388" stroke="#E11D48" stroke-width="14" stroke-linecap="round"/>
  <circle cx="1244" cy="452" r="18" fill="#E11D48"/>
  <path d="M1244 470V496" stroke="#E11D48" stroke-width="10" stroke-linecap="round"/>

  <path d="M980 430H1056" stroke="#FDA4AF" stroke-width="12" stroke-linecap="round" stroke-dasharray="10 16"/>
  <path d="M1018 394L1056 430L1018 466" stroke="#FDA4AF" stroke-width="10" stroke-linecap="round" stroke-linejoin="round"/>
</svg>
