<svg width="1600" height="900" viewBox="0 0 1600 900" fill="none" xmlns="http://www.w3.org/2000/svg">
  <defs>
    <linearGradient id="bg" x1="104" y1="78" x2="1504" y2="842" gradientUnits="userSpaceOnUse">
      <stop stop-color="#11182B"/>
      <stop offset="0.52" stop-color="#1F2E59"/>
      <stop offset="1" stop-color="#184665"/>
    </linearGradient>
  </defs>

  <rect width="1600" height="900" rx="48" fill="url(#bg)"/>
  <circle cx="1330" cy="178" r="152" fill="#67E8F9" fill-opacity="0.18"/>
  <circle cx="250" cy="736" r="210" fill="#FDBA74" fill-opacity="0.14"/>

  <rect x="170" y="186" width="760" height="528" rx="56" fill="#0F172A" fill-opacity="0.68" stroke="#93C5FD" stroke-opacity="0.32" stroke-width="4"/>
  <rect x="256" y="272" width="252" height="160" rx="28" fill="#E0E7FF"/>
  <rect x="536" y="272" width="308" height="160" rx="28" fill="#DBEAFE"/>
  <rect x="336" y="474" width="346" height="160" rx="28" fill="#FCE7F3"/>
  <path d="M508 352H536" stroke="#818CF8" stroke-width="12" stroke-linecap="round"/>
  <path d="M690 474V432" stroke="#0EA5E9" stroke-width="12" stroke-linecap="round"/>
  <path d="M430 474V432" stroke="#EC4899" stroke-width="12" stroke-linecap="round"/>

  <rect x="980" y="186" width="450" height="528" rx="56" fill="#F8FAFC" fill-opacity="0.95"/>
  <path d="M1060 610L1134 538L1210 570L1292 430L1354 474" stroke="#22D3EE" stroke-width="16" stroke-linecap="round" stroke-linejoin="round"/>
  <circle cx="1134" cy="538" r="20" fill="#22D3EE"/>
  <circle cx="1210" cy="570" r="20" fill="#818CF8"/>
  <circle cx="1292" cy="430" r="20" fill="#22D3EE"/>
  <circle cx="1354" cy="474" r="20" fill="#818CF8"/>
  <circle cx="1204" cy="324" r="110" stroke="#CBD5E1" stroke-width="12" stroke-dasharray="10 16"/>
  <circle cx="1204" cy="324" r="24" fill="#0EA5E9"/>
</svg>
