<svg width="1600" height="900" viewBox="0 0 1600 900" fill="none" xmlns="http://www.w3.org/2000/svg">
  <rect width="1600" height="900" fill="#1546B2"/>
  <rect x="0" y="0" width="1600" height="900" fill="url(#paint0_radial)"/>
  <text x="560" y="500" fill="white" font-family="Georgia, serif" font-size="220" font-weight="700">SEO</text>
  <text x="210" y="206" fill="white" font-family="Arial" font-size="74" font-weight="700">WEB</text>
  <path d="M220 226H380V306H220V226Z" stroke="white" stroke-width="10" stroke-linecap="round" stroke-linejoin="round"/>
  <path d="M300 306V362" stroke="white" stroke-width="10" stroke-linecap="round"/>
  <path d="M256 362H346" stroke="white" stroke-width="10" stroke-linecap="round"/>

  <text x="880" y="164" fill="white" font-family="Arial" font-size="62" font-weight="700">BACKLINKS</text>
  <path d="M860 226H1116" stroke="white" stroke-width="16" stroke-linecap="round" stroke-dasharray="28 20"/>

  <text x="1180" y="312" fill="white" font-family="Arial" font-size="64" font-style="italic">analytics</text>
  <circle cx="1190" cy="206" r="50" stroke="white" stroke-width="10"/>
  <path d="M1224 240L1272 288" stroke="white" stroke-width="10" stroke-linecap="round"/>
  <path d="M1322 160V266" stroke="white" stroke-width="10" stroke-linecap="round"/>
  <path d="M1360 128V266" stroke="#FFB54C" stroke-width="10" stroke-linecap="round"/>
  <path d="M1398 192V266" stroke="white" stroke-width="10" stroke-linecap="round"/>
  <path d="M1300 266H1428" stroke="white" stroke-width="10" stroke-linecap="round"/>

  <text x="1168" y="548" fill="white" font-family="Arial" font-size="72" font-style="italic">content</text>
  <path d="M1238 384C1288 420 1328 452 1380 504" stroke="white" stroke-width="10" stroke-linecap="round"/>
  <path d="M1326 448L1412 472L1394 556L1308 534L1326 448Z" stroke="white" stroke-width="10" stroke-linejoin="round"/>

  <text x="1088" y="792" fill="white" font-family="Arial" font-size="72" font-style="italic">ranking</text>
  <path d="M1110 694L1142 650L1174 694L1206 650L1238 694L1270 650L1302 694" stroke="#FFB54C" stroke-width="14" stroke-linecap="round" stroke-linejoin="round"/>

  <text x="128" y="398" fill="white" font-family="Arial" font-size="70" font-style="italic">site</text>
  <text x="120" y="470" fill="white" font-family="Arial" font-size="70" font-style="italic">architecture</text>
  <path d="M250 514H314V570H250V514Z" stroke="white" stroke-width="10"/>
  <path d="M200 642H264V698H200V642Z" stroke="white" stroke-width="10"/>
  <path d="M282 642H346V698H282V642Z" stroke="white" stroke-width="10"/>
  <path d="M364 642H428V698H364V642Z" stroke="white" stroke-width="10"/>
  <path d="M282 570V616" stroke="white" stroke-width="10" stroke-linecap="round"/>
  <path d="M232 616H382" stroke="white" stroke-width="10" stroke-linecap="round"/>
  <path d="M232 616V642" stroke="white" stroke-width="10" stroke-linecap="round"/>
  <path d="M314 616V642" stroke="white" stroke-width="10" stroke-linecap="round"/>
  <path d="M396 616V642" stroke="white" stroke-width="10" stroke-linecap="round"/>

  <text x="144" y="704" fill="white" font-family="Arial" font-size="62" font-weight="700">TRAFFIC</text>
  <ellipse cx="264" cy="740" rx="128" ry="70" stroke="white" stroke-width="10"/>
  <path d="M396 758C446 770 468 786 508 816" stroke="#FFB54C" stroke-width="10" stroke-linecap="round"/>

  <text x="496" y="804" fill="white" font-family="Arial" font-size="66" font-style="italic">On-page</text>
  <text x="460" y="860" fill="#FFB54C" font-family="Arial" font-size="58" font-weight="700">оптимизация</text>

  <path d="M578 654C558 712 542 738 508 782" stroke="white" stroke-width="10" stroke-linecap="round"/>
  <path d="M542 552C522 512 488 474 430 444" stroke="white" stroke-width="10" stroke-linecap="round"/>
  <path d="M648 496C620 430 594 368 544 310" stroke="white" stroke-width="10" stroke-linecap="round"/>
  <path d="M860 492C866 426 870 366 876 320" stroke="white" stroke-width="10" stroke-linecap="round"/>
  <path d="M1012 518C1080 458 1148 420 1208 382" stroke="white" stroke-width="10" stroke-linecap="round"/>
  <path d="M964 640C1014 686 1054 718 1092 756" stroke="white" stroke-width="10" stroke-linecap="round"/>

  <path d="M748 692H816V760H748V692Z" fill="#FFB54C"/>
  <path d="M832 660H892V760H832V660Z" stroke="white" stroke-width="10"/>
  <path d="M716 676H744V760H716V676Z" stroke="white" stroke-width="10"/>
  <text x="716" y="844" fill="white" font-family="Arial" font-size="58" font-style="italic">keywords</text>
  <text x="760" y="792" fill="white" font-family="Arial" font-size="60" font-weight="700">- ключевые</text>

  <defs>
    <radialGradient id="paint0_radial" cx="0" cy="0" r="1" gradientUnits="userSpaceOnUse" gradientTransform="translate(800 450) rotate(90) scale(520 760)">
      <stop stop-color="#2B63D6"/>
      <stop offset="1" stop-color="#1546B2"/>
    </radialGradient>
  </defs>
</svg>
