<svg width="1600" height="900" viewBox="0 0 1600 900" fill="none" xmlns="http://www.w3.org/2000/svg">
  <defs>
    <linearGradient id="bg" x1="90" y1="72" x2="1510" y2="840" gradientUnits="userSpaceOnUse">
      <stop stop-color="#0E172D"/>
      <stop offset="0.5" stop-color="#1A2E4F"/>
      <stop offset="1" stop-color="#0A2238"/>
    </linearGradient>
  </defs>

  <rect width="1600" height="900" rx="48" fill="url(#bg)"/>
  <circle cx="1350" cy="162" r="96" fill="#67E8F9" fill-opacity="0.16"/>
  <circle cx="1296" cy="742" r="164" fill="#FDBA74" fill-opacity="0.14"/>

  <rect x="138" y="170" width="590" height="560" rx="48" fill="#0F172A" fill-opacity="0.65" stroke="#67E8F9" stroke-opacity="0.3" stroke-width="4"/>
  <path d="M238 274H626" stroke="#E2E8F0" stroke-opacity="0.34" stroke-width="18" stroke-linecap="round"/>
  <path d="M238 336H530" stroke="#CBD5E1" stroke-opacity="0.3" stroke-width="14" stroke-linecap="round"/>
  <path d="M238 408L350 500H514L626 592" stroke="#67E8F9" stroke-width="14" stroke-linecap="round" stroke-linejoin="round"/>
  <circle cx="350" cy="500" r="22" fill="#38BDF8"/>
  <circle cx="514" cy="500" r="22" fill="#FB923C"/>
  <circle cx="626" cy="592" r="22" fill="#38BDF8"/>
  <path d="M238 592H360" stroke="#94A3B8" stroke-width="12" stroke-linecap="round"/>
  <path d="M238 642H466" stroke="#94A3B8" stroke-width="12" stroke-linecap="round"/>

  <rect x="900" y="170" width="538" height="560" rx="52" fill="#F8FAFC" fill-opacity="0.95"/>
  <path d="M1018 256H1320V316L1254 386H1086L1018 316V256Z" fill="#DBEAFE"/>
  <path d="M1090 386H1250V476L1200 548H1142L1090 476V386Z" fill="#BFDBFE"/>
  <path d="M1136 548H1204V648H1136V548Z" fill="#0EA5E9"/>
  <circle cx="1038" cy="620" r="76" fill="#0F172A" fill-opacity="0.06"/>
  <circle cx="1038" cy="620" r="46" fill="#0F172A" fill-opacity="0.1"/>
  <circle cx="1302" cy="620" r="76" fill="#0F172A" fill-opacity="0.06"/>
  <path d="M1248 620H1354" stroke="#FB923C" stroke-width="14" stroke-linecap="round"/>
  <path d="M1302 566V674" stroke="#FB923C" stroke-width="14" stroke-linecap="round"/>
</svg>
