<svg width="1600" height="900" viewBox="0 0 1600 900" fill="none" xmlns="http://www.w3.org/2000/svg">
  <rect width="1600" height="900" rx="48" fill="url(#bg)"/>
  <rect x="122" y="128" width="520" height="74" rx="37" fill="#FFF8F1" fill-opacity="0.92"/>
  <text x="168" y="176" fill="#C2410C" font-family="Arial, sans-serif" font-size="30" font-weight="700" letter-spacing="6">ANALYTICS</text>
  <text x="122" y="314" fill="#F8FAFC" font-family="Arial, sans-serif" font-size="82" font-weight="700">Эффективность SEO</text>
  <text x="122" y="410" fill="#CBD5E1" font-family="Arial, sans-serif" font-size="38">Как считать AI-трафик, заявки и вклад органики</text>
  <rect x="122" y="518" width="514" height="188" rx="34" fill="#0F172A" fill-opacity="0.72" stroke="#67E8F9" stroke-opacity="0.35"/>
  <text x="164" y="582" fill="#F8FAFC" font-family="Arial, sans-serif" font-size="32" font-weight="700">Важные метрики</text>
  <text x="164" y="632" fill="#CBD5E1" font-family="Arial, sans-serif" font-size="28">Лиды из органики</text>
  <text x="164" y="672" fill="#CBD5E1" font-family="Arial, sans-serif" font-size="28">Качество трафика</text>
  <text x="164" y="712" fill="#CBD5E1" font-family="Arial, sans-serif" font-size="28">Участие страниц в пути к заявке</text>
  <rect x="918" y="176" width="406" height="482" rx="40" fill="#FFFFFF" fill-opacity="0.92"/>
  <rect x="980" y="254" width="62" height="290" rx="24" fill="#7DD3FC"/>
  <rect x="1078" y="352" width="62" height="192" rx="24" fill="#FDBA74"/>
  <rect x="1176" y="306" width="62" height="238" rx="24" fill="#38BDF8"/>
  <rect x="980" y="590" width="258" height="16" rx="8" fill="#0F172A" fill-opacity="0.14"/>
  <rect x="980" y="628" width="220" height="16" rx="8" fill="#0F172A" fill-opacity="0.1"/>
  <circle cx="1360" cy="170" r="88" fill="#7DD3FC" fill-opacity="0.16"/>
  <circle cx="1320" cy="744" r="142" fill="#FDBA74" fill-opacity="0.14"/>
  <defs>
    <linearGradient id="bg" x1="102" y1="60" x2="1502" y2="842" gradientUnits="userSpaceOnUse">
      <stop stop-color="#0F172A"/>
      <stop offset="0.52" stop-color="#1E293B"/>
      <stop offset="1" stop-color="#0B2038"/>
    </linearGradient>
  </defs>
</svg>
