<svg width="1600" height="900" viewBox="0 0 1600 900" fill="none" xmlns="http://www.w3.org/2000/svg">
  <defs>
    <radialGradient id="bg" cx="0" cy="0" r="1" gradientUnits="userSpaceOnUse" gradientTransform="translate(800 450) rotate(90) scale(620 900)">
      <stop stop-color="#2F67DB"/>
      <stop offset="1" stop-color="#1745AE"/>
    </radialGradient>
  </defs>

  <rect width="1600" height="900" rx="48" fill="url(#bg)"/>
  <circle cx="1318" cy="184" r="150" fill="#93C5FD" fill-opacity="0.2"/>
  <circle cx="234" cy="748" r="214" fill="#FCD34D" fill-opacity="0.14"/>

  <rect x="148" y="142" width="658" height="612" rx="56" fill="#0B2A75" fill-opacity="0.46" stroke="#DBEAFE" stroke-opacity="0.38" stroke-width="4"/>
  <rect x="226" y="232" width="500" height="354" rx="34" fill="#EAF2FF" fill-opacity="0.92"/>
  <rect x="274" y="286" width="404" height="30" rx="15" fill="#2F67DB" fill-opacity="0.35"/>
  <rect x="274" y="338" width="300" height="24" rx="12" fill="#2F67DB" fill-opacity="0.25"/>
  <rect x="274" y="384" width="350" height="24" rx="12" fill="#2F67DB" fill-opacity="0.25"/>
  <rect x="274" y="446" width="180" height="96" rx="22" fill="#BFDBFE"/>
  <rect x="478" y="446" width="200" height="96" rx="22" fill="#DBEAFE"/>

  <rect x="890" y="180" width="560" height="540" rx="56" fill="#F8FAFC" fill-opacity="0.94"/>
  <path d="M1006 296L1084 224L1162 296L1084 368L1006 296Z" fill="#2563EB" fill-opacity="0.2" stroke="#2563EB" stroke-width="8"/>
  <path d="M1258 250H1378V366H1258V250Z" fill="#1D4ED8" fill-opacity="0.15" stroke="#1D4ED8" stroke-width="8"/>
  <path d="M1042 486L1124 564L1210 486" stroke="#2563EB" stroke-width="14" stroke-linecap="round" stroke-linejoin="round"/>
  <path d="M1124 564V664" stroke="#2563EB" stroke-width="14" stroke-linecap="round"/>
  <path d="M1272 476L1360 564L1272 652" stroke="#FB923C" stroke-width="14" stroke-linecap="round" stroke-linejoin="round"/>
  <circle cx="1084" cy="296" r="24" fill="#2563EB"/>
  <circle cx="1318" cy="308" r="24" fill="#FB923C"/>
  <circle cx="1124" cy="664" r="24" fill="#2563EB"/>
</svg>
